<svg xmlns="http://www.w3.org/2000/svg" width="148.24" height="28.67" viewBox="0 0 148.24 28.67">
  <path id="logo" d="M.448,5.648c0,6.237,3.863,10.206,8.682,10.206a6.992,6.992,0,0,0,6.131-3.083v2.8h6.06V-4.2h-6.06v2.8a6.883,6.883,0,0,0-6.1-3.083C4.311-4.488.448-.59.448,5.648Zm14.813.035c0,3.154-2.02,4.891-4.324,4.891-2.268,0-4.324-1.772-4.324-4.926S8.67.792,10.938.792C13.241.792,15.261,2.529,15.261,5.683ZM27.523,15.57h6.06V4.832c0-2.693,1.488-4.182,3.792-4.182s3.792,1.488,3.792,4.182V15.57h6.025V4.017c0-5.316-3.012-8.434-7.513-8.434a7.293,7.293,0,0,0-6.1,2.871v-9.108h-6.06Zm52.945,0h6.025V4.017c0-5.316-3.154-8.434-8.045-8.434A7.954,7.954,0,0,0,71.786-.731a7.387,7.387,0,0,0-6.733-3.686,6.976,6.976,0,0,0-5.777,2.693V-4.2h-6.06V15.57h6.06V4.832c0-2.587,1.488-4,3.792-4s3.792,1.418,3.792,4V15.57h6.025V4.832c0-2.587,1.488-4,3.792-4s3.792,1.418,3.792,4Zm20.8-15.2a3.419,3.419,0,0,1,3.721,3.4H97.408A3.748,3.748,0,0,1,101.271.367Zm9.462,8.647h-6.45a3.222,3.222,0,0,1-3.154,1.914c-1.949,0-3.544-1.2-3.757-3.792h13.715a15.315,15.315,0,0,0,.106-1.772c0-6.025-4.075-9.852-9.852-9.852-5.883,0-9.994,3.9-9.994,10.171s4.182,10.171,9.994,10.171C106.268,15.854,109.776,12.877,110.733,9.014Zm4.253-3.367c0,6.237,3.863,10.206,8.718,10.206a6.84,6.84,0,0,0,6.1-3.119V15.57h6.06V-10.654H129.8v9.179a7.259,7.259,0,0,0-6.1-3.012C118.849-4.488,114.986-.59,114.986,5.648Zm14.813.035c0,3.154-2.02,4.891-4.324,4.891-2.268,0-4.324-1.772-4.324-4.926S123.208.792,125.476.792C127.779.792,129.8,2.529,129.8,5.683Zm12.262,9.887h6.06V-4.2h-6.06Zm3.048-21.83a3.336,3.336,0,0,0,3.579-3.26,3.342,3.342,0,0,0-3.579-3.3,3.353,3.353,0,0,0-3.615,3.3A3.347,3.347,0,0,0,145.109-6.26Z" transform="translate(-0.448 12.816)" fill="#0078ff"/>
</svg>
