<svg xmlns="http://www.w3.org/2000/svg" width="122" height="122" viewBox="0 0 122 122">
  <g id="logoAhmed" transform="translate(-50 -100)">
    <rect id="Rectangle_15" data-name="Rectangle 15" width="122" height="122" rx="21" transform="translate(50 100)" fill="#0f0f0f"/>
    <path id="Path_16" data-name="Path 16" d="M.448,21.212c0,12.646,7.832,20.693,17.6,20.693,5.964,0,10.2-2.73,12.43-6.251v5.676H42.769V1.237H30.482V6.913C28.327,3.393,24.087.662,18.124.662,8.28.662.448,8.566.448,21.212Zm30.034.072c0,6.395-4.1,9.916-8.766,9.916-4.6,0-8.766-3.593-8.766-9.987s4.167-9.844,8.766-9.844C26.387,11.368,30.482,14.889,30.482,21.284ZM67.63,6.913V-11.84H55.343V41.331H67.63v-5.6c2.227,3.521,6.467,6.179,12.359,6.179,9.844,0,17.676-8.047,17.676-20.693S89.9.662,79.989.662C74.24.662,69.857,3.321,67.63,6.913Zm17.532,14.3c0,6.395-4.167,9.987-8.838,9.987-4.6,0-8.766-3.521-8.766-9.916s4.167-9.916,8.766-9.916C80.995,11.368,85.162,14.817,85.162,21.212Z" transform="translate(61.552 145.84)" fill="#f5f5f5"/>
  </g>
</svg>
