<svg xmlns="http://www.w3.org/2000/svg" width="787.5" height="884.057" viewBox="0 0 787.5 884.057">
  <g id="Group_11" data-name="Group 11" transform="translate(-259.319 -12.399)">
    <circle id="Ellipse_15" data-name="Ellipse 15" cx="20.222" cy="20.222" r="20.222" transform="matrix(0.809, -0.588, 0.588, 0.809, 844.748, 660.566)" fill="#247ce4" opacity="0.797"/>
    <circle id="Ellipse_14" data-name="Ellipse 14" cx="16.483" cy="16.483" r="16.483" transform="matrix(-0.998, 0.07, -0.07, -0.998, 1021.117, 613.819)" fill="#0f0f0f" opacity="0.933"/>
    <circle id="Ellipse_13" data-name="Ellipse 13" cx="7.118" cy="7.118" r="7.118" transform="matrix(-0.326, -0.946, 0.946, -0.326, 710.472, 373.819)" fill="#c73f47" opacity="0.761"/>
    <circle id="Ellipse_12" data-name="Ellipse 12" cx="10.643" cy="10.643" r="10.643" transform="matrix(-0.839, 0.545, -0.545, -0.839, 1046.819, 30.251)" fill="#c73f47" opacity="0.814"/>
    <circle id="Ellipse_11" data-name="Ellipse 11" cx="10.008" cy="10.008" r="10.008" transform="translate(602.63 700.419) rotate(-77)" fill="#0f0f0f" opacity="0.78"/>
    <circle id="Ellipse_10" data-name="Ellipse 10" cx="7.855" cy="7.855" r="7.855" transform="translate(707.054 524.875) rotate(139)" fill="#0f0f0f" opacity="0.813"/>
    <circle id="Ellipse_9" data-name="Ellipse 9" cx="12.006" cy="12.006" r="12.006" transform="matrix(-0.719, -0.695, 0.695, -0.719, 684.477, 288.138)" fill="#c73f47" opacity="0.881"/>
    <circle id="Ellipse_8" data-name="Ellipse 8" cx="11.051" cy="11.051" r="11.051" transform="matrix(0.208, -0.978, 0.978, 0.208, 587.413, 215.297)" fill="#0f0f0f" opacity="0.925"/>
    <circle id="Ellipse_7" data-name="Ellipse 7" cx="17.124" cy="17.124" r="17.124" transform="matrix(-0.53, -0.848, 0.848, -0.53, 350.246, 896.456)" fill="#c73f47" opacity="0.86"/>
    <circle id="Ellipse_6" data-name="Ellipse 6" cx="10" cy="10" r="10" transform="translate(335.005 667.582) rotate(-166)" fill="#ace351" opacity="0.987"/>
    <circle id="Ellipse_5" data-name="Ellipse 5" cx="13.75" cy="13.75" r="13.75" transform="translate(428.144 245.388) rotate(149)" fill="#0f0f0f" opacity="0.765"/>
    <circle id="Ellipse_4" data-name="Ellipse 4" cx="12.31" cy="12.31" r="12.31" transform="translate(278.179 196.824) rotate(-140)" fill="#ace351" opacity="0.718"/>
  </g>
</svg>
